<mxfile host="app.diagrams.net" modified="2023-07-31T07:29:35.433Z" agent="Mozilla/5.0 (Macintosh; Intel Mac OS X 10_15_7) AppleWebKit/537.36 (KHTML, like Gecko) Chrome/115.0.0.0 Safari/537.36" etag="8JFU_wLEIiivWotRtHO0" version="21.6.5" type="device">
  <diagram name="第 1 页" id="ugl-L_mCX2lovA_ee-sU">
    <mxGraphModel dx="1405" dy="932" grid="1" gridSize="10" guides="1" tooltips="1" connect="1" arrows="1" fold="1" page="1" pageScale="1" pageWidth="827" pageHeight="1169" math="0" shadow="0">
      <root>
        <mxCell id="0" />
        <mxCell id="1" parent="0" />
        <mxCell id="1UNTiGCY0LYMiBXck-68-3" value="&lt;b style=&quot;border-color: var(--border-color); font-size: 16px;&quot;&gt;物理机&lt;/b&gt;" style="rounded=1;whiteSpace=wrap;html=1;fillColor=#f8cecc;strokeColor=#b85450;" vertex="1" parent="1">
          <mxGeometry x="40" y="330" width="570" height="60" as="geometry" />
        </mxCell>
        <mxCell id="1UNTiGCY0LYMiBXck-68-4" value="&lt;span style=&quot;font-size: 16px;&quot;&gt;&lt;b&gt;业务k8s集群&lt;/b&gt;&lt;/span&gt;" style="rounded=1;whiteSpace=wrap;html=1;fillColor=#d5e8d4;strokeColor=#82b366;" vertex="1" parent="1">
          <mxGeometry x="40" y="260" width="280" height="60" as="geometry" />
        </mxCell>
        <mxCell id="1UNTiGCY0LYMiBXck-68-5" value="&lt;b style=&quot;border-color: var(--border-color); font-size: 16px;&quot;&gt;paas管理集群&lt;/b&gt;" style="rounded=1;whiteSpace=wrap;html=1;fillColor=#008a00;fontColor=#ffffff;strokeColor=#005700;" vertex="1" parent="1">
          <mxGeometry x="40" y="190" width="280" height="60" as="geometry" />
        </mxCell>
        <mxCell id="1UNTiGCY0LYMiBXck-68-15" value="&lt;span style=&quot;font-size: 16px;&quot;&gt;&lt;b&gt;中间件&lt;/b&gt;&lt;/span&gt;" style="rounded=1;whiteSpace=wrap;html=1;fillColor=#d0cee2;strokeColor=#56517e;" vertex="1" parent="1">
          <mxGeometry x="330" y="260" width="280" height="60" as="geometry" />
        </mxCell>
        <mxCell id="1UNTiGCY0LYMiBXck-68-16" value="&lt;b style=&quot;border-color: var(--border-color); font-size: 16px;&quot;&gt;私有云&lt;/b&gt;" style="rounded=1;whiteSpace=wrap;html=1;fillColor=#dae8fc;strokeColor=#6c8ebf;" vertex="1" parent="1">
          <mxGeometry x="40" y="580" width="570" height="60" as="geometry" />
        </mxCell>
        <mxCell id="1UNTiGCY0LYMiBXck-68-17" value="&lt;span style=&quot;font-size: 16px;&quot;&gt;&lt;b&gt;业务k8s集群（私有云）&lt;/b&gt;&lt;/span&gt;" style="rounded=1;whiteSpace=wrap;html=1;fillColor=#d5e8d4;strokeColor=#82b366;" vertex="1" parent="1">
          <mxGeometry x="40" y="510" width="280" height="60" as="geometry" />
        </mxCell>
        <mxCell id="1UNTiGCY0LYMiBXck-68-18" value="&lt;b style=&quot;border-color: var(--border-color); font-size: 16px;&quot;&gt;paas管理集群&lt;/b&gt;" style="rounded=1;whiteSpace=wrap;html=1;fillColor=#008a00;fontColor=#ffffff;strokeColor=#005700;" vertex="1" parent="1">
          <mxGeometry x="40" y="440" width="280" height="60" as="geometry" />
        </mxCell>
        <mxCell id="1UNTiGCY0LYMiBXck-68-19" value="&lt;span style=&quot;font-size: 16px;&quot;&gt;&lt;b&gt;中间件&lt;/b&gt;&lt;/span&gt;" style="rounded=1;whiteSpace=wrap;html=1;fillColor=#d0cee2;strokeColor=#56517e;" vertex="1" parent="1">
          <mxGeometry x="330" y="510" width="280" height="60" as="geometry" />
        </mxCell>
        <mxCell id="1UNTiGCY0LYMiBXck-68-20" value="&lt;b style=&quot;border-color: var(--border-color); font-size: 16px;&quot;&gt;物理机&lt;/b&gt;" style="rounded=1;whiteSpace=wrap;html=1;fillColor=#f8cecc;strokeColor=#b85450;" vertex="1" parent="1">
          <mxGeometry x="40" y="650" width="570" height="60" as="geometry" />
        </mxCell>
        <mxCell id="1UNTiGCY0LYMiBXck-68-21" value="&lt;b style=&quot;border-color: var(--border-color); font-size: 16px;&quot;&gt;私有云&lt;/b&gt;" style="rounded=1;whiteSpace=wrap;html=1;fillColor=#dae8fc;strokeColor=#6c8ebf;" vertex="1" parent="1">
          <mxGeometry x="40" y="900" width="280" height="60" as="geometry" />
        </mxCell>
        <mxCell id="1UNTiGCY0LYMiBXck-68-22" value="&lt;span style=&quot;font-size: 16px;&quot;&gt;&lt;b&gt;业务k8s集群（容器厂商）&lt;/b&gt;&lt;/span&gt;" style="rounded=1;whiteSpace=wrap;html=1;fillColor=#d5e8d4;strokeColor=#82b366;" vertex="1" parent="1">
          <mxGeometry x="38" y="830" width="280" height="60" as="geometry" />
        </mxCell>
        <mxCell id="1UNTiGCY0LYMiBXck-68-23" value="&lt;b style=&quot;border-color: var(--border-color); font-size: 16px;&quot;&gt;paas管理集群&lt;/b&gt;" style="rounded=1;whiteSpace=wrap;html=1;fillColor=#008a00;fontColor=#ffffff;strokeColor=#005700;" vertex="1" parent="1">
          <mxGeometry x="40" y="760" width="280" height="60" as="geometry" />
        </mxCell>
        <mxCell id="1UNTiGCY0LYMiBXck-68-24" value="&lt;span style=&quot;font-size: 16px;&quot;&gt;&lt;b&gt;中间件&lt;/b&gt;&lt;/span&gt;" style="rounded=1;whiteSpace=wrap;html=1;fillColor=#d0cee2;strokeColor=#56517e;" vertex="1" parent="1">
          <mxGeometry x="330" y="900" width="280" height="60" as="geometry" />
        </mxCell>
        <mxCell id="1UNTiGCY0LYMiBXck-68-25" value="&lt;b style=&quot;border-color: var(--border-color); font-size: 16px;&quot;&gt;物理机&lt;/b&gt;" style="rounded=1;whiteSpace=wrap;html=1;fillColor=#f8cecc;strokeColor=#b85450;" vertex="1" parent="1">
          <mxGeometry x="40" y="970" width="570" height="60" as="geometry" />
        </mxCell>
      </root>
    </mxGraphModel>
  </diagram>
</mxfile>
